<?xml version="1.0" encoding="UTF-8" standalone="no"?>
<!DOCTYPE svg PUBLIC "-//W3C//DTD SVG 1.1//EN"
 "http://www.w3.org/Graphics/SVG/1.1/DTD/svg11.dtd">
<!-- Generated by graphviz version 2.30.1 (20180420.1509)
 -->
<!-- Title: G Pages: 1 -->
<svg width="1152pt" height="3430pt"
 viewBox="0.00 0.00 1152.00 3430.00" xmlns="http://www.w3.org/2000/svg" xmlns:xlink="http://www.w3.org/1999/xlink">
<g id="graph0" class="graph" transform="scale(1 1) rotate(0) translate(4 3426)">
<title>G</title>
<polygon fill="white" stroke="white" points="-4,5 -4,-3426 1149,-3426 1149,5 -4,5"/>
<g id="clust1" class="cluster"><title>cluster_Global</title>
<path fill="none" stroke="gray" d="M440,-406C440,-406 1124,-406 1124,-406 1130,-406 1136,-412 1136,-418 1136,-418 1136,-3402 1136,-3402 1136,-3408 1130,-3414 1124,-3414 1124,-3414 440,-3414 440,-3414 434,-3414 428,-3408 428,-3402 428,-3402 428,-418 428,-418 428,-412 434,-406 440,-406"/>
<text text-anchor="middle" x="782" y="-3401.2" font-family="Times,serif" font-size="11.00" fill="gray">Global</text>
</g>
<g id="clust2" class="cluster"><title>cluster_\Drupal</title>
<path fill="none" stroke="gray" d="M448,-414C448,-414 1116,-414 1116,-414 1122,-414 1128,-420 1128,-426 1128,-426 1128,-3374 1128,-3374 1128,-3380 1122,-3386 1116,-3386 1116,-3386 448,-3386 448,-3386 442,-3386 436,-3380 436,-3374 436,-3374 436,-426 436,-426 436,-420 442,-414 448,-414"/>
<text text-anchor="middle" x="782" y="-3373.2" font-family="Times,serif" font-size="11.00" fill="gray">Drupal</text>
</g>
<g id="clust3" class="cluster"><title>cluster_\Drupal\oeaw</title>
<path fill="none" stroke="gray" d="M456,-656C456,-656 1108,-656 1108,-656 1114,-656 1120,-662 1120,-668 1120,-668 1120,-3346 1120,-3346 1120,-3352 1114,-3358 1108,-3358 1108,-3358 456,-3358 456,-3358 450,-3358 444,-3352 444,-3346 444,-3346 444,-668 444,-668 444,-662 450,-656 456,-656"/>
<text text-anchor="middle" x="782" y="-3345.2" font-family="Times,serif" font-size="11.00" fill="gray">oeaw</text>
</g>
<g id="clust4" class="cluster"><title>cluster_\Drupal\oeaw\Form</title>
<path fill="none" stroke="gray" d="M494,-2610C494,-2610 1067,-2610 1067,-2610 1073,-2610 1079,-2616 1079,-2622 1079,-2622 1079,-3318 1079,-3318 1079,-3324 1073,-3330 1067,-3330 1067,-3330 494,-3330 494,-3330 488,-3330 482,-3324 482,-3318 482,-3318 482,-2622 482,-2622 482,-2616 488,-2610 494,-2610"/>
<text text-anchor="middle" x="780.5" y="-3317.2" font-family="Times,serif" font-size="11.00" fill="gray">Form</text>
</g>
<g id="clust5" class="cluster"><title>cluster_\Drupal\oeaw\Model</title>
<path fill="none" stroke="gray" d="M464,-2260C464,-2260 1057,-2260 1057,-2260 1063,-2260 1069,-2266 1069,-2272 1069,-2272 1069,-2590 1069,-2590 1069,-2596 1063,-2602 1057,-2602 1057,-2602 464,-2602 464,-2602 458,-2602 452,-2596 452,-2590 452,-2590 452,-2272 452,-2272 452,-2266 458,-2260 464,-2260"/>
<text text-anchor="middle" x="760.5" y="-2589.2" font-family="Times,serif" font-size="11.00" fill="gray">Model</text>
</g>
<g id="clust6" class="cluster"><title>cluster_\Drupal\oeaw\Controller</title>
<path fill="none" stroke="gray" d="M913,-2180C913,-2180 1043,-2180 1043,-2180 1049,-2180 1055,-2186 1055,-2192 1055,-2192 1055,-2240 1055,-2240 1055,-2246 1049,-2252 1043,-2252 1043,-2252 913,-2252 913,-2252 907,-2252 901,-2246 901,-2240 901,-2240 901,-2192 901,-2192 901,-2186 907,-2180 913,-2180"/>
<text text-anchor="middle" x="978" y="-2239.2" font-family="Times,serif" font-size="11.00" fill="gray">Controller</text>
</g>
<g id="clust7" class="cluster"><title>cluster_\Drupal\oeaw\Helper</title>
<path fill="none" stroke="gray" d="M953,-2100C953,-2100 1003,-2100 1003,-2100 1009,-2100 1015,-2106 1015,-2112 1015,-2112 1015,-2160 1015,-2160 1015,-2166 1009,-2172 1003,-2172 1003,-2172 953,-2172 953,-2172 947,-2172 941,-2166 941,-2160 941,-2160 941,-2112 941,-2112 941,-2106 947,-2100 953,-2100"/>
<text text-anchor="middle" x="978" y="-2159.2" font-family="Times,serif" font-size="11.00" fill="gray">Helper</text>
</g>
<g id="clust8" class="cluster"><title>cluster_\Drupal\oeaw\EventSubscriber</title>
<path fill="none" stroke="gray" d="M909,-1966C909,-1966 1047,-1966 1047,-1966 1053,-1966 1059,-1972 1059,-1978 1059,-1978 1059,-2080 1059,-2080 1059,-2086 1053,-2092 1047,-2092 1047,-2092 909,-2092 909,-2092 903,-2092 897,-2086 897,-2080 897,-2080 897,-1978 897,-1978 897,-1972 903,-1966 909,-1966"/>
<text text-anchor="middle" x="978" y="-2079.2" font-family="Times,serif" font-size="11.00" fill="gray">EventSubscriber</text>
</g>
<g id="clust9" class="cluster"><title>cluster_\Drupal\oeaw\Plugin</title>
<path fill="none" stroke="gray" d="M856,-978C856,-978 1100,-978 1100,-978 1106,-978 1112,-984 1112,-990 1112,-990 1112,-1946 1112,-1946 1112,-1952 1106,-1958 1100,-1958 1100,-1958 856,-1958 856,-1958 850,-1958 844,-1952 844,-1946 844,-1946 844,-990 844,-990 844,-984 850,-978 856,-978"/>
<text text-anchor="middle" x="978" y="-1945.2" font-family="Times,serif" font-size="11.00" fill="gray">Plugin</text>
</g>
<g id="clust10" class="cluster"><title>cluster_\Drupal\oeaw\Plugin\Block</title>
<path fill="none" stroke="gray" d="M886,-1588C886,-1588 1070,-1588 1070,-1588 1076,-1588 1082,-1594 1082,-1600 1082,-1600 1082,-1918 1082,-1918 1082,-1924 1076,-1930 1070,-1930 1070,-1930 886,-1930 886,-1930 880,-1930 874,-1924 874,-1918 874,-1918 874,-1600 874,-1600 874,-1594 880,-1588 886,-1588"/>
<text text-anchor="middle" x="978" y="-1917.2" font-family="Times,serif" font-size="11.00" fill="gray">Block</text>
</g>
<g id="clust11" class="cluster"><title>cluster_\Drupal\oeaw\Plugin\rest</title>
<path fill="none" stroke="gray" d="M864,-986C864,-986 1092,-986 1092,-986 1098,-986 1104,-992 1104,-998 1104,-998 1104,-1568 1104,-1568 1104,-1574 1098,-1580 1092,-1580 1092,-1580 864,-1580 864,-1580 858,-1580 852,-1574 852,-1568 852,-1568 852,-998 852,-998 852,-992 858,-986 864,-986"/>
<text text-anchor="middle" x="978" y="-1567.2" font-family="Times,serif" font-size="11.00" fill="gray">rest</text>
</g>
<g id="clust12" class="cluster"><title>cluster_\Drupal\oeaw\Plugin\rest\resource</title>
<path fill="none" stroke="gray" d="M872,-994C872,-994 1084,-994 1084,-994 1090,-994 1096,-1000 1096,-1006 1096,-1006 1096,-1540 1096,-1540 1096,-1546 1090,-1552 1084,-1552 1084,-1552 872,-1552 872,-1552 866,-1552 860,-1546 860,-1540 860,-1540 860,-1006 860,-1006 860,-1000 866,-994 872,-994"/>
<text text-anchor="middle" x="978" y="-1539.2" font-family="Times,serif" font-size="11.00" fill="gray">resource</text>
</g>
<g id="clust13" class="cluster"><title>cluster_\Drupal\Tests</title>
<path fill="none" stroke="gray" d="M895,-422C895,-422 1061,-422 1061,-422 1067,-422 1073,-428 1073,-434 1073,-434 1073,-636 1073,-636 1073,-642 1067,-648 1061,-648 1061,-648 895,-648 895,-648 889,-648 883,-642 883,-636 883,-636 883,-434 883,-434 883,-428 889,-422 895,-422"/>
<text text-anchor="middle" x="978" y="-635.2" font-family="Times,serif" font-size="11.00" fill="gray">Tests</text>
</g>
<g id="clust14" class="cluster"><title>cluster_\Drupal\Tests\oeaw</title>
<path fill="none" stroke="gray" d="M903,-430C903,-430 1053,-430 1053,-430 1059,-430 1065,-436 1065,-442 1065,-442 1065,-608 1065,-608 1065,-614 1059,-620 1053,-620 1053,-620 903,-620 903,-620 897,-620 891,-614 891,-608 891,-608 891,-442 891,-442 891,-436 897,-430 903,-430"/>
<text text-anchor="middle" x="978" y="-607.2" font-family="Times,serif" font-size="11.00" fill="gray">oeaw</text>
</g>
<g id="clust15" class="cluster"><title>cluster_\Drupal\Tests\oeaw\Unit</title>
<path fill="none" stroke="gray" d="M911,-438C911,-438 1045,-438 1045,-438 1051,-438 1057,-444 1057,-450 1057,-450 1057,-580 1057,-580 1057,-586 1051,-592 1045,-592 1045,-592 911,-592 911,-592 905,-592 899,-586 899,-580 899,-580 899,-450 899,-450 899,-444 905,-438 911,-438"/>
<text text-anchor="middle" x="978" y="-579.2" font-family="Times,serif" font-size="11.00" fill="gray">Unit</text>
</g>
<g id="clust16" class="cluster"><title>cluster_\Drupal\Tests\oeaw\Unit\Model</title>
<path fill="none" stroke="gray" d="M919,-492C919,-492 1037,-492 1037,-492 1043,-492 1049,-498 1049,-504 1049,-504 1049,-552 1049,-552 1049,-558 1043,-564 1037,-564 1037,-564 919,-564 919,-564 913,-564 907,-558 907,-552 907,-552 907,-504 907,-504 907,-498 913,-492 919,-492"/>
<text text-anchor="middle" x="978" y="-551.2" font-family="Times,serif" font-size="11.00" fill="gray">Model</text>
</g>
<!-- \\Drupal\\oeaw\\Form\\DepAgreeTwoForm -->
<g id="node1" class="node"><title>\\Drupal\\oeaw\\Form\\DepAgreeTwoForm</title>
<polygon fill="none" stroke="black" points="1037,-3194 919,-3194 919,-3158 1037,-3158 1037,-3194"/>
<text text-anchor="middle" x="978" y="-3173.2" font-family="Courier,monospace" font-size="11.00">DepAgreeTwoForm</text>
</g>
<!-- \\Drupal\\oeaw\\Form\\DepAgreeBaseForm -->
<g id="node12" class="node"><title>\\Drupal\\oeaw\\Form\\DepAgreeBaseForm</title>
<polygon fill="none" stroke="black" points="616,-3194 490,-3194 490,-3158 616,-3158 616,-3194"/>
<text text-anchor="start" x="519" y="-3179.7" font-family="Courier,monospace" font-size="11.00">«abstract»</text>
<text text-anchor="start" x="498.5" y="-3168.7" font-family="Courier,monospace" font-size="11.00">DepAgreeBaseForm</text>
</g>
<!-- \\Drupal\\oeaw\\Form\\DepAgreeTwoForm&#45;&gt;\\Drupal\\oeaw\\Form\\DepAgreeBaseForm -->
<g id="edge1" class="edge"><title>\\Drupal\\oeaw\\Form\\DepAgreeTwoForm&#45;&gt;\\Drupal\\oeaw\\Form\\DepAgreeBaseForm</title>
<path fill="none" stroke="black" d="M918.628,-3176C842.371,-3176 708.872,-3176 626.298,-3176"/>
<polygon fill="none" stroke="black" points="626.239,-3172.5 616.239,-3176 626.239,-3179.5 626.239,-3172.5"/>
</g>
<!-- \\Drupal\\oeaw\\Form\\SidebarDateForm -->
<g id="node2" class="node"><title>\\Drupal\\oeaw\\Form\\SidebarDateForm</title>
<polygon fill="none" stroke="black" points="1037,-3086 919,-3086 919,-3050 1037,-3050 1037,-3086"/>
<text text-anchor="middle" x="978" y="-3065.2" font-family="Courier,monospace" font-size="11.00">SidebarDateForm</text>
</g>
<!-- \\Drupal\\Core\\Form\\FormBase -->
<g id="node51" class="node"><title>\\Drupal\\Core\\Form\\FormBase</title>
<ellipse fill="none" stroke="black" cx="119" cy="-2242" rx="118.079" ry="18"/>
<text text-anchor="middle" x="119" y="-2238.3" font-family="Times,serif" font-size="14.00" fill="gray">\Drupal\Core\Form\FormBase</text>
</g>
<!-- \\Drupal\\oeaw\\Form\\SidebarDateForm&#45;&gt;\\Drupal\\Core\\Form\\FormBase -->
<g id="edge2" class="edge"><title>\\Drupal\\oeaw\\Form\\SidebarDateForm&#45;&gt;\\Drupal\\Core\\Form\\FormBase</title>
<path fill="none" stroke="black" d="M918.967,-3071.23C892.179,-3069.42 862.322,-3062.07 844,-3041 729.313,-2909.12 919.784,-2379.38 796,-2256 757.847,-2217.97 601.021,-2268.28 554,-2242"/>
</g>
<!-- \\Drupal\\oeaw\\Form\\SidebarKeywordSearchForm -->
<g id="node3" class="node"><title>\\Drupal\\oeaw\\Form\\SidebarKeywordSearchForm</title>
<polygon fill="none" stroke="black" points="1067.5,-3032 888.5,-3032 888.5,-2996 1067.5,-2996 1067.5,-3032"/>
<text text-anchor="middle" x="978" y="-3011.2" font-family="Courier,monospace" font-size="11.00">SidebarKeywordSearchForm</text>
</g>
<!-- \\Drupal\\oeaw\\Form\\SidebarKeywordSearchForm&#45;&gt;\\Drupal\\Core\\Form\\FormBase -->
<g id="edge3" class="edge"><title>\\Drupal\\oeaw\\Form\\SidebarKeywordSearchForm&#45;&gt;\\Drupal\\Core\\Form\\FormBase</title>
<path fill="none" stroke="black" d="M888.308,-3012.37C871.423,-3007.93 855.471,-3000.13 844,-2987 736.896,-2864.4 911.56,-2370.66 796,-2256 757.762,-2218.06 601.021,-2268.28 554,-2242"/>
</g>
<!-- \\Drupal\\oeaw\\Form\\DepAgreeForm -->
<g id="node4" class="node"><title>\\Drupal\\oeaw\\Form\\DepAgreeForm</title>
<polygon fill="none" stroke="black" points="1027,-2978 929,-2978 929,-2942 1027,-2942 1027,-2978"/>
<text text-anchor="middle" x="978" y="-2957.2" font-family="Courier,monospace" font-size="11.00">DepAgreeForm</text>
</g>
<!-- \\Drupal\\oeaw\\Form\\DepAgreeForm&#45;&gt;\\Drupal\\Core\\Form\\FormBase -->
<g id="edge4" class="edge"><title>\\Drupal\\oeaw\\Form\\DepAgreeForm&#45;&gt;\\Drupal\\Core\\Form\\FormBase</title>
<path fill="none" stroke="black" d="M928.715,-2963.6C899.769,-2962.91 864.678,-2956.55 844,-2933 744.477,-2819.68 903.338,-2361.95 796,-2256 757.663,-2218.16 601.021,-2268.28 554,-2242"/>
</g>
<!-- \\Drupal\\oeaw\\Form\\SearchForm -->
<g id="node5" class="node"><title>\\Drupal\\oeaw\\Form\\SearchForm</title>
<polygon fill="none" stroke="black" points="1020,-2924 936,-2924 936,-2888 1020,-2888 1020,-2924"/>
<text text-anchor="middle" x="978" y="-2903.2" font-family="Courier,monospace" font-size="11.00">SearchForm</text>
</g>
<!-- \\Drupal\\oeaw\\Form\\SearchForm&#45;&gt;\\Drupal\\Core\\Form\\FormBase -->
<g id="edge5" class="edge"><title>\\Drupal\\oeaw\\Form\\SearchForm&#45;&gt;\\Drupal\\Core\\Form\\FormBase</title>
<path fill="none" stroke="black" d="M935.804,-2909.62C905.74,-2909.79 866.466,-2904.42 844,-2879 752.055,-2774.95 895.119,-2353.24 796,-2256 757.548,-2218.28 601.021,-2268.28 554,-2242"/>
</g>
<!-- \\Drupal\\oeaw\\Form\\ComplexSearchForm -->
<g id="node6" class="node"><title>\\Drupal\\oeaw\\Form\\ComplexSearchForm</title>
<polygon fill="none" stroke="black" points="1043.5,-2870 912.5,-2870 912.5,-2834 1043.5,-2834 1043.5,-2870"/>
<text text-anchor="middle" x="978" y="-2849.2" font-family="Courier,monospace" font-size="11.00">ComplexSearchForm</text>
</g>
<!-- \\Drupal\\oeaw\\Form\\ComplexSearchForm&#45;&gt;\\Drupal\\Core\\Form\\FormBase -->
<g id="edge6" class="edge"><title>\\Drupal\\oeaw\\Form\\ComplexSearchForm&#45;&gt;\\Drupal\\Core\\Form\\FormBase</title>
<path fill="none" stroke="black" d="M912.349,-2854.46C887.477,-2851.85 860.997,-2844.09 844,-2825 759.631,-2730.22 886.903,-2344.54 796,-2256 757.411,-2218.42 601.021,-2268.28 554,-2242"/>
</g>
<!-- \\Drupal\\oeaw\\Form\\SidebarTypeOfResourceForm -->
<g id="node7" class="node"><title>\\Drupal\\oeaw\\Form\\SidebarTypeOfResourceForm</title>
<polygon fill="none" stroke="black" points="1070.5,-2816 885.5,-2816 885.5,-2780 1070.5,-2780 1070.5,-2816"/>
<text text-anchor="middle" x="978" y="-2795.2" font-family="Courier,monospace" font-size="11.00">SidebarTypeOfResourceForm</text>
</g>
<!-- \\Drupal\\oeaw\\Form\\SidebarTypeOfResourceForm&#45;&gt;\\Drupal\\Core\\Form\\FormBase -->
<g id="edge7" class="edge"><title>\\Drupal\\oeaw\\Form\\SidebarTypeOfResourceForm&#45;&gt;\\Drupal\\Core\\Form\\FormBase</title>
<path fill="none" stroke="black" d="M885.166,-2795.19C869.531,-2790.63 854.862,-2783.1 844,-2771 767.202,-2685.48 878.691,-2335.83 796,-2256 757.246,-2218.59 601.021,-2268.28 554,-2242"/>
<path fill="none" stroke="black" d="M552,-2242C436.011,-2177.17 273.653,-2202.07 184.663,-2223.56"/>
<polygon fill="none" stroke="black" points="183.575,-2220.22 174.708,-2226.02 185.256,-2227.02 183.575,-2220.22"/>
</g>
<!-- \\Drupal\\oeaw\\Form\\DepAgreeThreeForm -->
<g id="node8" class="node"><title>\\Drupal\\oeaw\\Form\\DepAgreeThreeForm</title>
<polygon fill="none" stroke="black" points="1043.5,-3140 912.5,-3140 912.5,-3104 1043.5,-3104 1043.5,-3140"/>
<text text-anchor="middle" x="978" y="-3119.2" font-family="Courier,monospace" font-size="11.00">DepAgreeThreeForm</text>
</g>
<!-- \\Drupal\\oeaw\\Form\\DepAgreeThreeForm&#45;&gt;\\Drupal\\oeaw\\Form\\DepAgreeBaseForm -->
<g id="edge8" class="edge"><title>\\Drupal\\oeaw\\Form\\DepAgreeThreeForm&#45;&gt;\\Drupal\\oeaw\\Form\\DepAgreeBaseForm</title>
<path fill="none" stroke="black" d="M912.295,-3130.26C835.17,-3140.11 706.655,-3156.51 626.321,-3166.77"/>
<polygon fill="none" stroke="black" points="625.761,-3163.31 616.285,-3168.05 626.648,-3170.25 625.761,-3163.31"/>
</g>
<!-- \\Drupal\\oeaw\\Form\\DepAgreeOneForm -->
<g id="node9" class="node"><title>\\Drupal\\oeaw\\Form\\DepAgreeOneForm</title>
<polygon fill="none" stroke="black" points="1037,-3302 919,-3302 919,-3266 1037,-3266 1037,-3302"/>
<text text-anchor="middle" x="978" y="-3281.2" font-family="Courier,monospace" font-size="11.00">DepAgreeOneForm</text>
</g>
<!-- \\Drupal\\oeaw\\Form\\DepAgreeOneForm&#45;&gt;\\Drupal\\oeaw\\Form\\DepAgreeBaseForm -->
<g id="edge9" class="edge"><title>\\Drupal\\oeaw\\Form\\DepAgreeOneForm&#45;&gt;\\Drupal\\oeaw\\Form\\DepAgreeBaseForm</title>
<path fill="none" stroke="black" d="M918.862,-3273.14C895.511,-3268.53 868.395,-3262.88 844,-3257 768.094,-3238.72 682.045,-3214.2 623.527,-3196.94"/>
<polygon fill="none" stroke="black" points="624.237,-3193.5 613.655,-3194.02 622.252,-3200.21 624.237,-3193.5"/>
</g>
<!-- \\Drupal\\oeaw\\Form\\AdminForm -->
<g id="node10" class="node"><title>\\Drupal\\oeaw\\Form\\AdminForm</title>
<polygon fill="none" stroke="black" points="1016.5,-2762 939.5,-2762 939.5,-2726 1016.5,-2726 1016.5,-2762"/>
<text text-anchor="middle" x="978" y="-2741.2" font-family="Courier,monospace" font-size="11.00">AdminForm</text>
</g>
<!-- \\Drupal\\Core\\Form\\ConfigFormBase -->
<g id="node52" class="node"><title>\\Drupal\\Core\\Form\\ConfigFormBase</title>
<ellipse fill="none" stroke="black" cx="553" cy="-380" rx="142.175" ry="18"/>
<text text-anchor="middle" x="553" y="-376.3" font-family="Times,serif" font-size="14.00" fill="gray">\Drupal\Core\Form\ConfigFormBase</text>
</g>
<!-- \\Drupal\\oeaw\\Form\\AdminForm&#45;&gt;\\Drupal\\Core\\Form\\ConfigFormBase -->
<g id="edge10" class="edge"><title>\\Drupal\\oeaw\\Form\\AdminForm&#45;&gt;\\Drupal\\Core\\Form\\ConfigFormBase</title>
<path fill="none" stroke="black" d="M939.35,-2747.45C908.993,-2747.97 867.599,-2743.15 844,-2717 770.846,-2635.94 808.424,-2336.48 796,-2228 710.937,-1485.26 582.297,-577.922 558.026,-408.084"/>
<polygon fill="none" stroke="black" points="561.49,-407.587 556.609,-398.184 554.561,-408.579 561.49,-407.587"/>
</g>
<!-- \\Drupal\\oeaw\\Form\\AutoCompleteForm -->
<g id="node11" class="node"><title>\\Drupal\\oeaw\\Form\\AutoCompleteForm</title>
<polygon fill="none" stroke="black" points="1040.5,-2708 915.5,-2708 915.5,-2672 1040.5,-2672 1040.5,-2708"/>
<text text-anchor="middle" x="978" y="-2687.2" font-family="Courier,monospace" font-size="11.00">AutoCompleteForm</text>
</g>
<!-- \\Drupal\\oeaw\\Form\\AutoCompleteForm&#45;&gt;\\Drupal\\Core\\Form\\FormBase -->
<g id="edge11" class="edge"><title>\\Drupal\\oeaw\\Form\\AutoCompleteForm&#45;&gt;\\Drupal\\Core\\Form\\FormBase</title>
<path fill="none" stroke="black" d="M915.179,-2693.3C889.223,-2691.16 861.138,-2683.53 844,-2663 761.736,-2564.46 884.115,-446.34 796,-353 758.97,-313.774 607.931,-335.164 554,-334"/>
</g>
<!-- \\Drupal\\oeaw\\Form\\DepAgreeBaseForm&#45;&gt;\\Drupal\\Core\\Form\\FormBase -->
<g id="edge12" class="edge"><title>\\Drupal\\oeaw\\Form\\DepAgreeBaseForm&#45;&gt;\\Drupal\\Core\\Form\\FormBase</title>
<path fill="none" stroke="black" d="M543.564,-3157.76C489.962,-3041.87 197.026,-2408.53 132.554,-2269.14"/>
<polygon fill="none" stroke="black" points="135.688,-2267.58 128.313,-2259.97 129.335,-2270.52 135.688,-2267.58"/>
</g>
<!-- \\Drupal\\oeaw\\Form\\DepAgreeFourForm -->
<g id="node13" class="node"><title>\\Drupal\\oeaw\\Form\\DepAgreeFourForm</title>
<polygon fill="none" stroke="black" points="1040.5,-3248 915.5,-3248 915.5,-3212 1040.5,-3212 1040.5,-3248"/>
<text text-anchor="middle" x="978" y="-3227.2" font-family="Courier,monospace" font-size="11.00">DepAgreeFourForm</text>
</g>
<!-- \\Drupal\\oeaw\\Form\\DepAgreeFourForm&#45;&gt;\\Drupal\\oeaw\\Form\\DepAgreeBaseForm -->
<g id="edge13" class="edge"><title>\\Drupal\\oeaw\\Form\\DepAgreeFourForm&#45;&gt;\\Drupal\\oeaw\\Form\\DepAgreeBaseForm</title>
<path fill="none" stroke="black" d="M915.492,-3222.15C838.803,-3212.36 707.909,-3195.65 626.445,-3185.25"/>
<polygon fill="none" stroke="black" points="626.634,-3181.74 616.271,-3183.95 625.747,-3188.69 626.634,-3181.74"/>
</g>
<!-- \\Drupal\\oeaw\\Form\\ClassForm -->
<g id="node14" class="node"><title>\\Drupal\\oeaw\\Form\\ClassForm</title>
<polygon fill="none" stroke="black" points="1016.5,-2654 939.5,-2654 939.5,-2618 1016.5,-2618 1016.5,-2654"/>
<text text-anchor="middle" x="978" y="-2633.2" font-family="Courier,monospace" font-size="11.00">ClassForm</text>
</g>
<!-- \\Drupal\\oeaw\\Form\\ClassForm&#45;&gt;\\Drupal\\Core\\Form\\FormBase -->
<g id="edge14" class="edge"><title>\\Drupal\\oeaw\\Form\\ClassForm&#45;&gt;\\Drupal\\Core\\Form\\FormBase</title>
<path fill="none" stroke="black" d="M939.339,-2638.97C908.546,-2639.1 866.542,-2633.59 844,-2606 764.78,-2509.06 881.965,-444.015 796,-353 758.96,-313.784 607.931,-335.164 554,-334"/>
<path fill="none" stroke="black" d="M552,-334C498.069,-332.836 348.559,-315.276 310,-353 170.553,-489.427 126.529,-1989.08 120.696,-2213.87"/>
<polygon fill="none" stroke="black" points="117.197,-2213.79 120.44,-2223.88 124.195,-2213.97 117.197,-2213.79"/>
</g>
<!-- \\Drupal\\oeaw\\Model\\OeawCustomSparql -->
<g id="node15" class="node"><title>\\Drupal\\oeaw\\Model\\OeawCustomSparql</title>
<polygon fill="none" stroke="black" points="1040.5,-2574 915.5,-2574 915.5,-2538 1040.5,-2538 1040.5,-2574"/>
<text text-anchor="middle" x="978" y="-2553.2" font-family="Courier,monospace" font-size="11.00">OeawCustomSparql</text>
</g>
<!-- \\Drupal\\oeaw\\Model\\OeawCustomSparqlInterface -->
<g id="node22" class="node"><title>\\Drupal\\oeaw\\Model\\OeawCustomSparqlInterface</title>
<polygon fill="none" stroke="black" points="645.5,-2574 460.5,-2574 460.5,-2538 645.5,-2538 645.5,-2574"/>
<text text-anchor="middle" x="553" y="-2553.2" font-family="Courier,monospace" font-size="11.00">OeawCustomSparqlInterface</text>
</g>
<!-- \\Drupal\\oeaw\\Model\\OeawCustomSparql&#45;&gt;\\Drupal\\oeaw\\Model\\OeawCustomSparqlInterface -->
<g id="edge15" class="edge"><title>\\Drupal\\oeaw\\Model\\OeawCustomSparql&#45;&gt;\\Drupal\\oeaw\\Model\\OeawCustomSparqlInterface</title>
<path fill="none" stroke="black" stroke-dasharray="1,5" d="M915.492,-2556C847.483,-2556 736.844,-2556 655.854,-2556"/>
<polygon fill="none" stroke="black" points="655.631,-2552.5 645.631,-2556 655.631,-2559.5 655.631,-2552.5"/>
</g>
<!-- \\Drupal\\oeaw\\Model\\OeawResourceCustomData -->
<g id="node16" class="node"><title>\\Drupal\\oeaw\\Model\\OeawResourceCustomData</title>
<polygon fill="none" stroke="black" points="1060.5,-2520 895.5,-2520 895.5,-2484 1060.5,-2484 1060.5,-2520"/>
<text text-anchor="middle" x="978" y="-2499.2" font-family="Courier,monospace" font-size="11.00">OeawResourceCustomData</text>
</g>
<!-- \\Drupal\\oeaw\\Model\\OeawResourceChildren -->
<g id="node17" class="node"><title>\\Drupal\\oeaw\\Model\\OeawResourceChildren</title>
<polygon fill="none" stroke="black" points="1054,-2466 902,-2466 902,-2430 1054,-2430 1054,-2466"/>
<text text-anchor="middle" x="978" y="-2445.2" font-family="Courier,monospace" font-size="11.00">OeawResourceChildren</text>
</g>
<!-- \\Drupal\\oeaw\\Model\\ModelFunctions -->
<g id="node18" class="node"><title>\\Drupal\\oeaw\\Model\\ModelFunctions</title>
<polygon fill="none" stroke="black" points="1033.5,-2412 922.5,-2412 922.5,-2376 1033.5,-2376 1033.5,-2412"/>
<text text-anchor="middle" x="978" y="-2391.2" font-family="Courier,monospace" font-size="11.00">ModelFunctions</text>
</g>
<!-- \\Drupal\\oeaw\\Model\\OeawStorage -->
<g id="node19" class="node"><title>\\Drupal\\oeaw\\Model\\OeawStorage</title>
<polygon fill="none" stroke="black" points="1023.5,-2358 932.5,-2358 932.5,-2322 1023.5,-2322 1023.5,-2358"/>
<text text-anchor="middle" x="978" y="-2337.2" font-family="Courier,monospace" font-size="11.00">OeawStorage</text>
</g>
<!-- \\Drupal\\oeaw\\Model\\OeawStorageInterface -->
<g id="node21" class="node"><title>\\Drupal\\oeaw\\Model\\OeawStorageInterface</title>
<polygon fill="none" stroke="black" points="629,-2358 477,-2358 477,-2322 629,-2322 629,-2358"/>
<text text-anchor="middle" x="553" y="-2337.2" font-family="Courier,monospace" font-size="11.00">OeawStorageInterface</text>
</g>
<!-- \\Drupal\\oeaw\\Model\\OeawStorage&#45;&gt;\\Drupal\\oeaw\\Model\\OeawStorageInterface -->
<g id="edge16" class="edge"><title>\\Drupal\\oeaw\\Model\\OeawStorage&#45;&gt;\\Drupal\\oeaw\\Model\\OeawStorageInterface</title>
<path fill="none" stroke="black" stroke-dasharray="1,5" d="M932.132,-2340C862.625,-2340 727.728,-2340 639.276,-2340"/>
<polygon fill="none" stroke="black" points="639.263,-2336.5 629.263,-2340 639.262,-2343.5 639.263,-2336.5"/>
</g>
<!-- \\Drupal\\oeaw\\Model\\OeawResource -->
<g id="node20" class="node"><title>\\Drupal\\oeaw\\Model\\OeawResource</title>
<polygon fill="none" stroke="black" points="1027,-2304 929,-2304 929,-2268 1027,-2268 1027,-2304"/>
<text text-anchor="middle" x="978" y="-2283.2" font-family="Courier,monospace" font-size="11.00">OeawResource</text>
</g>
<!-- \\Drupal\\oeaw\\Controller\\FrontendController -->
<g id="node23" class="node"><title>\\Drupal\\oeaw\\Controller\\FrontendController</title>
<polygon fill="none" stroke="black" points="1047,-2224 909,-2224 909,-2188 1047,-2188 1047,-2224"/>
<text text-anchor="middle" x="978" y="-2203.2" font-family="Courier,monospace" font-size="11.00">FrontendController</text>
</g>
<!-- \\Drupal\\Core\\Controller\\ControllerBase -->
<g id="node53" class="node"><title>\\Drupal\\Core\\Controller\\ControllerBase</title>
<ellipse fill="none" stroke="black" cx="553" cy="-288" rx="151.373" ry="18"/>
<text text-anchor="middle" x="553" y="-284.3" font-family="Times,serif" font-size="14.00" fill="gray">\Drupal\Core\Controller\ControllerBase</text>
</g>
<!-- \\Drupal\\oeaw\\Controller\\FrontendController&#45;&gt;\\Drupal\\Core\\Controller\\ControllerBase -->
<g id="edge17" class="edge"><title>\\Drupal\\oeaw\\Controller\\FrontendController&#45;&gt;\\Drupal\\Core\\Controller\\ControllerBase</title>
<path fill="none" stroke="black" d="M908.883,-2207C884.739,-2203.63 859.695,-2195.12 844,-2176 713.102,-2016.56 933.967,-473.366 796,-320 761.727,-281.902 705.84,-272.655 656.403,-273.504"/>
<polygon fill="none" stroke="black" points="656.173,-270.01 646.286,-273.817 656.39,-277.006 656.173,-270.01"/>
</g>
<!-- \\Drupal\\oeaw\\Helper\\Helper -->
<g id="node24" class="node"><title>\\Drupal\\oeaw\\Helper\\Helper</title>
<polygon fill="none" stroke="black" points="1006.5,-2144 949.5,-2144 949.5,-2108 1006.5,-2108 1006.5,-2144"/>
<text text-anchor="middle" x="978" y="-2123.2" font-family="Courier,monospace" font-size="11.00">Helper</text>
</g>
<!-- \\Drupal\\oeaw\\EventSubscriber\\MyEventSubscriber -->
<g id="node25" class="node"><title>\\Drupal\\oeaw\\EventSubscriber\\MyEventSubscriber</title>
<polygon fill="none" stroke="black" points="1043.5,-2064 912.5,-2064 912.5,-2028 1043.5,-2028 1043.5,-2064"/>
<text text-anchor="middle" x="978" y="-2043.2" font-family="Courier,monospace" font-size="11.00">MyEventSubscriber</text>
</g>
<!-- \\Symfony\\Component\\EventDispatcher\\EventSubscriberInterface -->
<g id="node55" class="node"><title>\\Symfony\\Component\\EventDispatcher\\EventSubscriberInterface</title>
<ellipse fill="none" stroke="black" cx="553" cy="-234" rx="242.357" ry="18"/>
<text text-anchor="middle" x="553" y="-230.3" font-family="Times,serif" font-size="14.00" fill="gray">\Symfony\Component\EventDispatcher\EventSubscriberInterface</text>
</g>
<!-- \\Drupal\\oeaw\\EventSubscriber\\MyEventSubscriber&#45;&gt;\\Symfony\\Component\\EventDispatcher\\EventSubscriberInterface -->
<g id="edge19" class="edge"><title>\\Drupal\\oeaw\\EventSubscriber\\MyEventSubscriber&#45;&gt;\\Symfony\\Component\\EventDispatcher\\EventSubscriberInterface</title>
<path fill="none" stroke="black" stroke-dasharray="1,5" d="M912.491,-2049C887.331,-2046.55 860.599,-2038.75 844,-2019 718.28,-1869.41 928.263,-404.84 796,-261 791.446,-256.048 786.524,-251.607 781.295,-247.633"/>
<polygon fill="none" stroke="black" points="783.049,-244.59 772.837,-241.766 779.059,-250.341 783.049,-244.59"/>
</g>
<!-- \\Drupal\\oeaw\\EventSubscriber\\MyExampleSubscriber -->
<g id="node26" class="node"><title>\\Drupal\\oeaw\\EventSubscriber\\MyExampleSubscriber</title>
<polygon fill="none" stroke="black" points="1050.5,-2010 905.5,-2010 905.5,-1974 1050.5,-1974 1050.5,-2010"/>
<text text-anchor="middle" x="978" y="-1989.2" font-family="Courier,monospace" font-size="11.00">MyExampleSubscriber</text>
</g>
<!-- \\Drupal\\oeaw\\EventSubscriber\\MyExampleSubscriber&#45;&gt;\\Symfony\\Component\\EventDispatcher\\EventSubscriberInterface -->
<g id="edge20" class="edge"><title>\\Drupal\\oeaw\\EventSubscriber\\MyExampleSubscriber&#45;&gt;\\Symfony\\Component\\EventDispatcher\\EventSubscriberInterface</title>
<path fill="none" stroke="black" stroke-dasharray="1,5" d="M905.434,-1977.15C881.949,-1968.56 858.242,-1955.08 844,-1934 739.899,-1779.9 921.968,-397.804 796,-261 791.443,-256.051 786.517,-251.613 781.286,-247.641"/>
<polygon fill="none" stroke="black" points="783.037,-244.596 772.824,-241.778 779.051,-250.35 783.037,-244.596"/>
</g>
<!-- \\Drupal\\oeaw\\Plugin\\Block\\ClassBlock -->
<g id="node27" class="node"><title>\\Drupal\\oeaw\\Plugin\\Block\\ClassBlock</title>
<polygon fill="none" stroke="black" points="1020,-1902 936,-1902 936,-1866 1020,-1866 1020,-1902"/>
<text text-anchor="middle" x="978" y="-1881.2" font-family="Courier,monospace" font-size="11.00">ClassBlock</text>
</g>
<!-- \\Drupal\\Core\\Block\\BlockBase -->
<g id="node56" class="node"><title>\\Drupal\\Core\\Block\\BlockBase</title>
<ellipse fill="none" stroke="black" cx="553" cy="-180" rx="120.779" ry="18"/>
<text text-anchor="middle" x="553" y="-176.3" font-family="Times,serif" font-size="14.00" fill="gray">\Drupal\Core\Block\BlockBase</text>
</g>
<!-- \\Drupal\\oeaw\\Plugin\\Block\\ClassBlock&#45;&gt;\\Drupal\\Core\\Block\\BlockBase -->
<g id="edge21" class="edge"><title>\\Drupal\\oeaw\\Plugin\\Block\\ClassBlock&#45;&gt;\\Drupal\\Core\\Block\\BlockBase</title>
<path fill="none" stroke="black" d="M935.766,-1887.92C905.476,-1888.29 865.928,-1883.04 844,-1857 725.872,-1716.7 920.264,-341.9 796,-207 756.58,-164.207 689.6,-159.622 636.087,-164.532"/>
<polygon fill="none" stroke="black" points="635.503,-161.074 625.919,-165.592 636.229,-168.036 635.503,-161.074"/>
</g>
<!-- \\Drupal\\oeaw\\Plugin\\Block\\SidebarDateBlock -->
<g id="node28" class="node"><title>\\Drupal\\oeaw\\Plugin\\Block\\SidebarDateBlock</title>
<polygon fill="none" stroke="black" points="1040.5,-1848 915.5,-1848 915.5,-1812 1040.5,-1812 1040.5,-1848"/>
<text text-anchor="middle" x="978" y="-1827.2" font-family="Courier,monospace" font-size="11.00">SidebarDateBlock</text>
</g>
<!-- \\Drupal\\oeaw\\Plugin\\Block\\SidebarDateBlock&#45;&gt;\\Drupal\\Core\\Block\\BlockBase -->
<g id="edge22" class="edge"><title>\\Drupal\\oeaw\\Plugin\\Block\\SidebarDateBlock&#45;&gt;\\Drupal\\Core\\Block\\BlockBase</title>
<path fill="none" stroke="black" d="M915.268,-1833.22C889.329,-1831.07 861.234,-1823.45 844,-1803 729.668,-1667.34 916.265,-337.429 796,-207 756.559,-164.226 689.581,-159.64 636.074,-164.544"/>
<polygon fill="none" stroke="black" points="635.491,-161.086 625.907,-165.603 636.216,-168.048 635.491,-161.086"/>
</g>
<!-- \\Drupal\\oeaw\\Plugin\\Block\\SidebarKeywordSearchBlock -->
<g id="node29" class="node"><title>\\Drupal\\oeaw\\Plugin\\Block\\SidebarKeywordSearchBlock</title>
<polygon fill="none" stroke="black" points="1070.5,-1794 885.5,-1794 885.5,-1758 1070.5,-1758 1070.5,-1794"/>
<text text-anchor="middle" x="978" y="-1773.2" font-family="Courier,monospace" font-size="11.00">SidebarKeywordSearchBlock</text>
</g>
<!-- \\Drupal\\oeaw\\Plugin\\Block\\SidebarKeywordSearchBlock&#45;&gt;\\Drupal\\Core\\Block\\BlockBase -->
<g id="edge23" class="edge"><title>\\Drupal\\oeaw\\Plugin\\Block\\SidebarKeywordSearchBlock&#45;&gt;\\Drupal\\Core\\Block\\BlockBase</title>
<path fill="none" stroke="black" d="M885.237,-1773.92C869.399,-1769.34 854.635,-1761.61 844,-1749 733.464,-1617.98 912.266,-332.959 796,-207 756.537,-164.247 689.56,-159.659 636.059,-164.558"/>
<polygon fill="none" stroke="black" points="635.478,-161.099 625.894,-165.615 636.203,-168.062 635.478,-161.099"/>
</g>
<!-- \\Drupal\\oeaw\\Plugin\\Block\\SearchSBBlock -->
<g id="node30" class="node"><title>\\Drupal\\oeaw\\Plugin\\Block\\SearchSBBlock</title>
<polygon fill="none" stroke="black" points="1030,-1740 926,-1740 926,-1704 1030,-1704 1030,-1740"/>
<text text-anchor="middle" x="978" y="-1719.2" font-family="Courier,monospace" font-size="11.00">SearchSBBlock</text>
</g>
<!-- \\Drupal\\oeaw\\Plugin\\Block\\SearchSBBlock&#45;&gt;\\Drupal\\Core\\Block\\BlockBase -->
<g id="edge24" class="edge"><title>\\Drupal\\oeaw\\Plugin\\Block\\SearchSBBlock&#45;&gt;\\Drupal\\Core\\Block\\BlockBase</title>
<path fill="none" stroke="black" d="M925.76,-1725.8C897.231,-1724.89 863.612,-1718.22 844,-1695 737.26,-1568.63 908.267,-328.489 796,-207 756.513,-164.269 689.538,-159.68 636.044,-164.572"/>
<polygon fill="none" stroke="black" points="635.465,-161.113 625.88,-165.628 636.188,-168.076 635.465,-161.113"/>
</g>
<!-- \\Drupal\\oeaw\\Plugin\\Block\\SidebarTypeOfResourceBlock -->
<g id="node31" class="node"><title>\\Drupal\\oeaw\\Plugin\\Block\\SidebarTypeOfResourceBlock</title>
<polygon fill="none" stroke="black" points="1074,-1686 882,-1686 882,-1650 1074,-1650 1074,-1686"/>
<text text-anchor="middle" x="978" y="-1665.2" font-family="Courier,monospace" font-size="11.00">SidebarTypeOfResourceBlock</text>
</g>
<!-- \\Drupal\\oeaw\\Plugin\\Block\\SidebarTypeOfResourceBlock&#45;&gt;\\Drupal\\Core\\Block\\BlockBase -->
<g id="edge25" class="edge"><title>\\Drupal\\oeaw\\Plugin\\Block\\SidebarTypeOfResourceBlock&#45;&gt;\\Drupal\\Core\\Block\\BlockBase</title>
<path fill="none" stroke="black" d="M881.884,-1664.87C867.331,-1660.19 853.889,-1652.69 844,-1641 741.055,-1519.27 904.268,-324.019 796,-207 756.554,-164.366 689.742,-159.718 636.301,-164.562"/>
<polygon fill="none" stroke="black" points="635.734,-161.102 626.146,-165.61 636.452,-168.065 635.734,-161.102"/>
</g>
<!-- \\Drupal\\oeaw\\Plugin\\Block\\StartPageLeftBlock -->
<g id="node32" class="node"><title>\\Drupal\\oeaw\\Plugin\\Block\\StartPageLeftBlock</title>
<polygon fill="none" stroke="black" points="1047,-1632 909,-1632 909,-1596 1047,-1596 1047,-1632"/>
<text text-anchor="middle" x="978" y="-1611.2" font-family="Courier,monospace" font-size="11.00">StartPageLeftBlock</text>
</g>
<!-- \\Drupal\\oeaw\\Plugin\\Block\\StartPageLeftBlock&#45;&gt;\\Drupal\\Core\\Block\\BlockBase -->
<g id="edge26" class="edge"><title>\\Drupal\\oeaw\\Plugin\\Block\\StartPageLeftBlock&#45;&gt;\\Drupal\\Core\\Block\\BlockBase</title>
<path fill="none" stroke="black" d="M908.998,-1600.33C884.408,-1591.81 859.023,-1578.07 844,-1556 759.614,-1432.01 897.974,-316.984 796,-207 756.509,-164.407 689.701,-159.756 636.272,-164.589"/>
<polygon fill="none" stroke="black" points="635.709,-161.129 626.12,-165.634 636.426,-168.092 635.709,-161.129"/>
</g>
<!-- \\Drupal\\oeaw\\Plugin\\rest\\resource\\ApiPublicationsResource -->
<g id="node33" class="node"><title>\\Drupal\\oeaw\\Plugin\\rest\\resource\\ApiPublicationsResource</title>
<polygon fill="none" stroke="black" points="1064,-1524 892,-1524 892,-1488 1064,-1488 1064,-1524"/>
<text text-anchor="middle" x="978" y="-1503.2" font-family="Courier,monospace" font-size="11.00">ApiPublicationsResource</text>
</g>
<!-- \\Drupal\\rest\\Plugin\\ResourceBase -->
<g id="node57" class="node"><title>\\Drupal\\rest\\Plugin\\ResourceBase</title>
<ellipse fill="none" stroke="black" cx="553" cy="-126" rx="129.977" ry="18"/>
<text text-anchor="middle" x="553" y="-122.3" font-family="Times,serif" font-size="14.00" fill="gray">\Drupal\rest\Plugin\ResourceBase</text>
</g>
<!-- \\Drupal\\oeaw\\Plugin\\rest\\resource\\ApiPublicationsResource&#45;&gt;\\Drupal\\rest\\Plugin\\ResourceBase -->
<g id="edge27" class="edge"><title>\\Drupal\\oeaw\\Plugin\\rest\\resource\\ApiPublicationsResource&#45;&gt;\\Drupal\\rest\\Plugin\\ResourceBase</title>
<path fill="none" stroke="black" d="M891.789,-1505.57C873.532,-1501.3 856.115,-1493.29 844,-1479 748.646,-1366.56 896.271,-261.08 796,-153 757.104,-111.075 691.738,-105.92 638.739,-110.381"/>
<polygon fill="none" stroke="black" points="638.273,-106.91 628.656,-111.356 638.947,-113.877 638.273,-106.91"/>
</g>
<!-- \\Drupal\\oeaw\\Plugin\\rest\\resource\\ApiConceptsResource -->
<g id="node34" class="node"><title>\\Drupal\\oeaw\\Plugin\\rest\\resource\\ApiConceptsResource</title>
<polygon fill="none" stroke="black" points="1050.5,-1470 905.5,-1470 905.5,-1434 1050.5,-1434 1050.5,-1470"/>
<text text-anchor="middle" x="978" y="-1449.2" font-family="Courier,monospace" font-size="11.00">ApiConceptsResource</text>
</g>
<!-- \\Drupal\\oeaw\\Plugin\\rest\\resource\\ApiConceptsResource&#45;&gt;\\Drupal\\rest\\Plugin\\ResourceBase -->
<g id="edge28" class="edge"><title>\\Drupal\\oeaw\\Plugin\\rest\\resource\\ApiConceptsResource&#45;&gt;\\Drupal\\rest\\Plugin\\ResourceBase</title>
<path fill="none" stroke="black" d="M905.325,-1454.05C882.412,-1450.84 859.1,-1442.78 844,-1425 752.441,-1317.2 892.272,-256.611 796,-153 757.139,-111.177 691.934,-105.966 638.994,-110.378"/>
<polygon fill="none" stroke="black" points="638.541,-106.905 628.921,-111.343 639.209,-113.873 638.541,-106.905"/>
</g>
<!-- \\Drupal\\oeaw\\Plugin\\rest\\resource\\ApiPersonsResource -->
<g id="node35" class="node"><title>\\Drupal\\oeaw\\Plugin\\rest\\resource\\ApiPersonsResource</title>
<polygon fill="none" stroke="black" points="1047,-1416 909,-1416 909,-1380 1047,-1380 1047,-1416"/>
<text text-anchor="middle" x="978" y="-1395.2" font-family="Courier,monospace" font-size="11.00">ApiPersonsResource</text>
</g>
<!-- \\Drupal\\oeaw\\Plugin\\rest\\resource\\ApiPersonsResource&#45;&gt;\\Drupal\\rest\\Plugin\\ResourceBase -->
<g id="edge29" class="edge"><title>\\Drupal\\oeaw\\Plugin\\rest\\resource\\ApiPersonsResource&#45;&gt;\\Drupal\\rest\\Plugin\\ResourceBase</title>
<path fill="none" stroke="black" d="M908.809,-1400.49C884.806,-1397.62 859.878,-1389.66 844,-1371 756.237,-1267.84 888.274,-252.141 796,-153 757.104,-111.21 691.901,-105.997 638.97,-110.399"/>
<polygon fill="none" stroke="black" points="638.52,-106.926 628.899,-111.363 639.187,-113.895 638.52,-106.926"/>
</g>
<!-- \\Drupal\\oeaw\\Plugin\\rest\\resource\\ApiGetDataResource -->
<g id="node36" class="node"><title>\\Drupal\\oeaw\\Plugin\\rest\\resource\\ApiGetDataResource</title>
<polygon fill="none" stroke="black" points="1047,-1362 909,-1362 909,-1326 1047,-1326 1047,-1362"/>
<text text-anchor="middle" x="978" y="-1341.2" font-family="Courier,monospace" font-size="11.00">ApiGetDataResource</text>
</g>
<!-- \\Drupal\\oeaw\\Plugin\\rest\\resource\\ApiGetDataResource&#45;&gt;\\Drupal\\rest\\Plugin\\ResourceBase -->
<g id="edge30" class="edge"><title>\\Drupal\\oeaw\\Plugin\\rest\\resource\\ApiGetDataResource&#45;&gt;\\Drupal\\rest\\Plugin\\ResourceBase</title>
<path fill="none" stroke="black" d="M908.827,-1346.47C884.826,-1343.6 859.895,-1335.65 844,-1317 760.031,-1218.49 884.276,-247.673 796,-153 757.134,-111.318 692.092,-106.048 639.221,-110.4"/>
<polygon fill="none" stroke="black" points="638.785,-106.926 629.16,-111.355 639.446,-113.895 638.785,-106.926"/>
</g>
<!-- \\Drupal\\oeaw\\Plugin\\rest\\resource\\ApiCheckACDHIdentifierResource -->
<g id="node37" class="node"><title>\\Drupal\\oeaw\\Plugin\\rest\\resource\\ApiCheckACDHIdentifierResource</title>
<polygon fill="none" stroke="black" points="1087.5,-1308 868.5,-1308 868.5,-1272 1087.5,-1272 1087.5,-1308"/>
<text text-anchor="middle" x="978" y="-1287.2" font-family="Courier,monospace" font-size="11.00">ApiCheckACDHIdentifierResource</text>
</g>
<!-- \\Drupal\\oeaw\\Plugin\\rest\\resource\\ApiCheckACDHIdentifierResource&#45;&gt;\\Drupal\\rest\\Plugin\\ResourceBase -->
<g id="edge31" class="edge"><title>\\Drupal\\oeaw\\Plugin\\rest\\resource\\ApiCheckACDHIdentifierResource&#45;&gt;\\Drupal\\rest\\Plugin\\ResourceBase</title>
<path fill="none" stroke="black" d="M868.288,-1281.34C859.08,-1276.85 850.733,-1270.88 844,-1263 763.826,-1169.13 880.278,-243.204 796,-153 757.092,-111.357 692.052,-106.085 639.193,-110.427"/>
<polygon fill="none" stroke="black" points="638.76,-106.952 629.135,-111.379 639.42,-113.921 638.76,-106.952"/>
</g>
<!-- \\Drupal\\oeaw\\Plugin\\rest\\resource\\ApiPlacesResource -->
<g id="node38" class="node"><title>\\Drupal\\oeaw\\Plugin\\rest\\resource\\ApiPlacesResource</title>
<polygon fill="none" stroke="black" points="1043.5,-1254 912.5,-1254 912.5,-1218 1043.5,-1218 1043.5,-1254"/>
<text text-anchor="middle" x="978" y="-1233.2" font-family="Courier,monospace" font-size="11.00">ApiPlacesResource</text>
</g>
<!-- \\Drupal\\oeaw\\Plugin\\rest\\resource\\ApiPlacesResource&#45;&gt;\\Drupal\\rest\\Plugin\\ResourceBase -->
<g id="edge32" class="edge"><title>\\Drupal\\oeaw\\Plugin\\rest\\resource\\ApiPlacesResource&#45;&gt;\\Drupal\\rest\\Plugin\\ResourceBase</title>
<path fill="none" stroke="black" d="M912.322,-1238.82C887.291,-1236.3 860.701,-1228.51 844,-1209 767.62,-1119.77 876.281,-238.735 796,-153 757.046,-111.4 692.009,-106.126 639.162,-110.455"/>
<polygon fill="none" stroke="black" points="638.733,-106.98 629.106,-111.405 639.391,-113.949 638.733,-106.98"/>
</g>
<!-- \\Drupal\\oeaw\\Plugin\\rest\\resource\\ApiGetMetadataResource -->
<g id="node39" class="node"><title>\\Drupal\\oeaw\\Plugin\\rest\\resource\\ApiGetMetadataResource</title>
<polygon fill="none" stroke="black" points="1060.5,-1200 895.5,-1200 895.5,-1164 1060.5,-1164 1060.5,-1200"/>
<text text-anchor="middle" x="978" y="-1179.2" font-family="Courier,monospace" font-size="11.00">ApiGetMetadataResource</text>
</g>
<!-- \\Drupal\\oeaw\\Plugin\\rest\\resource\\ApiGetMetadataResource&#45;&gt;\\Drupal\\rest\\Plugin\\ResourceBase -->
<g id="edge33" class="edge"><title>\\Drupal\\oeaw\\Plugin\\rest\\resource\\ApiGetMetadataResource&#45;&gt;\\Drupal\\rest\\Plugin\\ResourceBase</title>
<path fill="none" stroke="black" d="M895.362,-1182.23C875.862,-1178.19 856.965,-1170.11 844,-1155 771.415,-1070.41 872.284,-234.267 796,-153 757.063,-111.52 692.187,-106.19 639.404,-110.465"/>
<polygon fill="none" stroke="black" points="638.99,-106.988 629.359,-111.404 639.642,-113.958 638.99,-106.988"/>
</g>
<!-- \\Drupal\\oeaw\\Plugin\\rest\\resource\\ApiOrganisationsResource -->
<g id="node40" class="node"><title>\\Drupal\\oeaw\\Plugin\\rest\\resource\\ApiOrganisationsResource</title>
<polygon fill="none" stroke="black" points="1067.5,-1146 888.5,-1146 888.5,-1110 1067.5,-1110 1067.5,-1146"/>
<text text-anchor="middle" x="978" y="-1125.2" font-family="Courier,monospace" font-size="11.00">ApiOrganisationsResource</text>
</g>
<!-- \\Drupal\\oeaw\\Plugin\\rest\\resource\\ApiOrganisationsResource&#45;&gt;\\Drupal\\rest\\Plugin\\ResourceBase -->
<g id="edge34" class="edge"><title>\\Drupal\\oeaw\\Plugin\\rest\\resource\\ApiOrganisationsResource&#45;&gt;\\Drupal\\rest\\Plugin\\ResourceBase</title>
<path fill="none" stroke="black" d="M888.158,-1126.5C871.283,-1122.05 855.372,-1114.22 844,-1101 775.208,-1021.05 868.287,-229.8 796,-153 757.075,-111.645 692.36,-106.259 639.642,-110.479"/>
<polygon fill="none" stroke="black" points="639.244,-107 629.609,-111.407 639.889,-113.971 639.244,-107"/>
</g>
<!-- \\Drupal\\oeaw\\Plugin\\rest\\resource\\DemoResource -->
<g id="node41" class="node"><title>\\Drupal\\oeaw\\Plugin\\rest\\resource\\DemoResource</title>
<polygon fill="none" stroke="black" points="1027,-1092 929,-1092 929,-1056 1027,-1056 1027,-1092"/>
<text text-anchor="middle" x="978" y="-1071.2" font-family="Courier,monospace" font-size="11.00">DemoResource</text>
</g>
<!-- \\Drupal\\oeaw\\Plugin\\rest\\resource\\DemoResource&#45;&gt;\\Drupal\\rest\\Plugin\\ResourceBase -->
<g id="edge35" class="edge"><title>\\Drupal\\oeaw\\Plugin\\rest\\resource\\DemoResource&#45;&gt;\\Drupal\\rest\\Plugin\\ResourceBase</title>
<path fill="none" stroke="black" d="M928.902,-1077.73C899.838,-1077.13 864.552,-1070.81 844,-1047 714.003,-896.391 932.581,-297.665 796,-153 757.012,-111.704 692.3,-106.315 639.6,-110.519"/>
<polygon fill="none" stroke="black" points="639.206,-107.04 629.57,-111.444 639.849,-114.011 639.206,-107.04"/>
</g>
<!-- \\Drupal\\oeaw\\Plugin\\rest\\resource\\APICacheOntologyResource -->
<g id="node42" class="node"><title>\\Drupal\\oeaw\\Plugin\\rest\\resource\\APICacheOntologyResource</title>
<polygon fill="none" stroke="black" points="1067.5,-1038 888.5,-1038 888.5,-1002 1067.5,-1002 1067.5,-1038"/>
<text text-anchor="middle" x="978" y="-1017.2" font-family="Courier,monospace" font-size="11.00">APICacheOntologyResource</text>
</g>
<!-- \\Drupal\\oeaw\\Plugin\\rest\\resource\\APICacheOntologyResource&#45;&gt;\\Drupal\\rest\\Plugin\\ResourceBase -->
<g id="edge36" class="edge"><title>\\Drupal\\oeaw\\Plugin\\rest\\resource\\APICacheOntologyResource&#45;&gt;\\Drupal\\rest\\Plugin\\ResourceBase</title>
<path fill="none" stroke="black" d="M888.462,-1021.99C871.568,-1018.16 855.573,-1010.88 844,-998 718.322,-858.074 925.329,-289.559 796,-153 757.016,-111.837 692.466,-106.392 639.833,-110.538"/>
<polygon fill="none" stroke="black" points="639.455,-107.058 629.815,-111.452 640.092,-114.029 639.455,-107.058"/>
</g>
<!-- \\Drupal\\oeaw\\DepAgreeConstants -->
<g id="node43" class="node"><title>\\Drupal\\oeaw\\DepAgreeConstants</title>
<polygon fill="none" stroke="black" points="1043.5,-970 912.5,-970 912.5,-934 1043.5,-934 1043.5,-970"/>
<text text-anchor="middle" x="978" y="-949.2" font-family="Courier,monospace" font-size="11.00">DepAgreeConstants</text>
</g>
<!-- \\Drupal\\oeaw\\deppPDF -->
<g id="node44" class="node"><title>\\Drupal\\oeaw\\deppPDF</title>
<polygon fill="none" stroke="black" points="1010,-916 946,-916 946,-880 1010,-880 1010,-916"/>
<text text-anchor="middle" x="978" y="-895.2" font-family="Courier,monospace" font-size="11.00">deppPDF</text>
</g>
<!-- \\TCPDF -->
<g id="node54" class="node"><title>\\TCPDF</title>
<ellipse fill="none" stroke="black" cx="553" cy="-72" rx="40.0939" ry="18"/>
<text text-anchor="middle" x="553" y="-68.3" font-family="Times,serif" font-size="14.00" fill="gray">\TCPDF</text>
</g>
<!-- \\Drupal\\oeaw\\deppPDF&#45;&gt;\\TCPDF -->
<g id="edge18" class="edge"><title>\\Drupal\\oeaw\\deppPDF&#45;&gt;\\TCPDF</title>
<path fill="none" stroke="black" d="M945.937,-901.425C915.09,-902.914 868.907,-899.611 844,-871 731.139,-741.356 914.527,-223.484 796,-99 745.883,-46.3647 653.939,-52.2483 598.949,-61.7909"/>
<polygon fill="none" stroke="black" points="597.995,-58.4077 588.798,-63.6668 599.267,-65.2911 597.995,-58.4077"/>
</g>
<!-- \\Drupal\\oeaw\\PropertyTableCache -->
<g id="node45" class="node"><title>\\Drupal\\oeaw\\PropertyTableCache</title>
<polygon fill="none" stroke="black" points="1047,-862 909,-862 909,-826 1047,-826 1047,-862"/>
<text text-anchor="middle" x="978" y="-841.2" font-family="Courier,monospace" font-size="11.00">PropertyTableCache</text>
</g>
<!-- \\Drupal\\oeaw\\ConfigConstants -->
<g id="node46" class="node"><title>\\Drupal\\oeaw\\ConfigConstants</title>
<polygon fill="none" stroke="black" points="1037.5,-808 918.5,-808 918.5,-772 1037.5,-772 1037.5,-808"/>
<text text-anchor="start" x="944" y="-793.7" font-family="Courier,monospace" font-size="11.00">«abstract»</text>
<text text-anchor="start" x="927" y="-782.7" font-family="Courier,monospace" font-size="11.00">ConfigConstants</text>
</g>
<!-- \\Drupal\\oeaw\\CollectionCache -->
<g id="node47" class="node"><title>\\Drupal\\oeaw\\CollectionCache</title>
<polygon fill="none" stroke="black" points="1037,-754 919,-754 919,-718 1037,-718 1037,-754"/>
<text text-anchor="middle" x="978" y="-733.2" font-family="Courier,monospace" font-size="11.00">CollectionCache</text>
</g>
<!-- \\Drupal\\oeaw\\OeawFunctions -->
<g id="node48" class="node"><title>\\Drupal\\oeaw\\OeawFunctions</title>
<polygon fill="none" stroke="black" points="1030,-700 926,-700 926,-664 1030,-664 1030,-700"/>
<text text-anchor="middle" x="978" y="-679.2" font-family="Courier,monospace" font-size="11.00">OeawFunctions</text>
</g>
<!-- \\Drupal\\Tests\\oeaw\\Unit\\Model\\OeawResourceTest -->
<g id="node49" class="node"><title>\\Drupal\\Tests\\oeaw\\Unit\\Model\\OeawResourceTest</title>
<polygon fill="none" stroke="black" points="1040.5,-536 915.5,-536 915.5,-500 1040.5,-500 1040.5,-536"/>
<text text-anchor="middle" x="978" y="-515.2" font-family="Courier,monospace" font-size="11.00">OeawResourceTest</text>
</g>
<!-- \\PHPUnit\\Framework\\TestCase -->
<g id="node58" class="node"><title>\\PHPUnit\\Framework\\TestCase</title>
<ellipse fill="none" stroke="black" cx="553" cy="-18" rx="122.678" ry="18"/>
<text text-anchor="middle" x="553" y="-14.3" font-family="Times,serif" font-size="14.00" fill="gray">\PHPUnit\Framework\TestCase</text>
</g>
<!-- \\Drupal\\Tests\\oeaw\\Unit\\Model\\OeawResourceTest&#45;&gt;\\PHPUnit\\Framework\\TestCase -->
<g id="edge37" class="edge"><title>\\Drupal\\Tests\\oeaw\\Unit\\Model\\OeawResourceTest&#45;&gt;\\PHPUnit\\Framework\\TestCase</title>
<path fill="none" stroke="black" d="M915.173,-523.044C889.697,-521.658 861.991,-515.064 844,-496 774.825,-422.699 867.087,-116.449 796,-45 756.307,-5.10448 692.454,0.599487 640.303,-3.1161"/>
<polygon fill="none" stroke="black" points="639.712,0.34666 630.039,-3.97748 640.297,-6.62882 639.712,0.34666"/>
</g>
<!-- \\Drupal\\Tests\\oeaw\\Unit\\OeawFunctions -->
<g id="node50" class="node"><title>\\Drupal\\Tests\\oeaw\\Unit\\OeawFunctions</title>
<polygon fill="none" stroke="black" points="1030,-482 926,-482 926,-446 1030,-446 1030,-482"/>
<text text-anchor="middle" x="978" y="-461.2" font-family="Courier,monospace" font-size="11.00">OeawFunctions</text>
</g>
<!-- \\Drupal\\Tests\\oeaw\\Unit\\OeawFunctions&#45;&gt;\\PHPUnit\\Framework\\TestCase -->
<g id="edge38" class="edge"><title>\\Drupal\\Tests\\oeaw\\Unit\\OeawFunctions&#45;&gt;\\PHPUnit\\Framework\\TestCase</title>
<path fill="none" stroke="black" d="M975.398,-445.837C968.477,-379.347 934.859,-147.755 796,-45 758.01,-16.8873 707.049,-8.17908 661.692,-7.28881"/>
<polygon fill="none" stroke="black" points="661.529,-3.78765 651.505,-7.21595 661.479,-10.7875 661.529,-3.78765"/>
</g>
</g>
</svg>
